o CharacterMovementCourseGroundCollision
v -33.00000 0.00000 -14.00000
v -28.76000 0.00000 -14.00000
v -15.64000 0.00000 -14.00000
v 33.00000 0.00000 -14.00000
v -33.00000 0.00000 7.34000
v -28.76000 0.00000 7.34000
v -15.64000 0.00000 7.34000
v 33.00000 0.00000 7.34000
v -33.00000 0.00000 22.41000
v -28.76000 0.00000 22.41000
v -15.64000 0.00000 22.41000
v 33.00000 0.00000 22.41000
v -33.00000 0.00000 60.00000
v -28.76000 0.00000 60.00000
v -15.64000 0.00000 60.00000
v 33.00000 0.00000 60.00000
s off
f 1 5 2
f 2 5 6
f 2 6 3
f 3 6 7
f 3 7 4
f 4 7 8
f 5 9 6
f 6 9 10
f 7 11 8
f 8 11 12
f 9 13 10
f 10 13 14
f 10 14 11
f 11 14 15
f 11 15 12
f 12 15 16
